<svg width="114" height="66" viewBox="0 0 114 66" fill="none" xmlns="http://www.w3.org/2000/svg">
<path d="M5.24325 15.832C4.21925 15.832 3.34458 15.4693 2.61925 14.744C1.89392 14.0187 1.53125 13.144 1.53125 12.12C1.53125 11.096 1.89392 10.2213 2.61925 9.496C3.34458 8.77067 4.21925 8.408 5.24325 8.408C6.26725 8.408 7.14192 8.77067 7.86725 9.496C8.59258 10.2213 8.95525 11.096 8.95525 12.12C8.95525 13.144 8.59258 14.0187 7.86725 14.744C7.14192 15.4693 6.26725 15.832 5.24325 15.832ZM5.24325 26.712C4.21925 26.712 3.34458 26.3493 2.61925 25.624C1.89392 24.8987 1.53125 24.024 1.53125 23C1.53125 21.976 1.89392 21.1013 2.61925 20.376C3.34458 19.6507 4.21925 19.288 5.24325 19.288C6.26725 19.288 7.14192 19.6507 7.86725 20.376C8.59258 21.1013 8.95525 21.976 8.95525 23C8.95525 24.024 8.59258 24.8987 7.86725 25.624C7.14192 26.3493 6.26725 26.712 5.24325 26.712ZM12.9938 28.64V22.368L21.9538 18.72V24.736C21.6124 25.4187 20.9511 26.0587 19.9698 26.656C18.9884 27.2533 17.8791 27.744 16.6418 28.128C15.4044 28.4693 14.1884 28.64 12.9938 28.64ZM12.9938 20.448V2.784L21.9538 0.799999V16.8L12.9938 20.448ZM21.9538 41.12L11.1378 30.24C11.6924 30.24 12.4818 30.2187 13.5058 30.176C14.5298 30.0907 15.5964 29.9413 16.7058 29.728C17.8578 29.472 18.9031 29.1093 19.8418 28.64C20.8231 28.128 21.5271 27.4667 21.9538 26.656V41.12ZM11.1378 52C9.17508 52 7.36175 51.5093 5.69775 50.528C4.03375 49.5467 2.68975 48.224 1.66575 46.56C0.684417 44.896 0.19375 43.0827 0.19375 41.12C0.19375 39.1147 0.684417 37.3013 1.66575 35.68C2.68975 34.016 4.03375 32.6933 5.69775 31.712C7.36175 30.7307 9.17508 30.24 11.1378 30.24C13.1431 30.24 14.9564 30.7307 16.5778 31.712C18.1991 32.6933 19.5004 34.016 20.4818 35.68C21.4631 37.3013 21.9538 39.1147 21.9538 41.12C21.9538 43.1253 21.4631 44.96 20.4818 46.624C19.5004 48.2453 18.1991 49.5467 16.5778 50.528C14.9564 51.5093 13.1431 52 11.1378 52ZM11.1378 43.04C11.6924 43.04 12.1404 42.8693 12.4818 42.528C12.8231 42.144 12.9938 41.6747 12.9938 41.12C12.9938 40.5653 12.8231 40.1173 12.4818 39.776C12.1404 39.392 11.6924 39.2 11.1378 39.2C10.5831 39.2 10.1138 39.392 9.72975 39.776C9.34575 40.1173 9.15375 40.5653 9.15375 41.12C9.15375 41.6747 9.34575 42.144 9.72975 42.528C10.1138 42.8693 10.5831 43.04 11.1378 43.04ZM34.6673 52V43.04H44.0113V52H34.6673ZM18.0912 61.6C19.9686 62.112 21.5259 62.304 22.7632 62.176C23.9579 62.048 24.8966 61.6853 25.5793 61.088C26.2619 60.4907 26.7313 59.7227 26.9873 58.784C27.2433 57.888 27.3713 56.9067 27.3713 55.84V32.224L36.3313 30.24V55.84C36.3313 58.1013 35.8406 59.936 34.8593 61.344C33.9206 62.7947 32.6833 63.84 31.1473 64.48C29.6113 65.1627 27.9899 65.4827 26.2833 65.44C24.6193 65.3973 23.0619 65.0347 21.6112 64.352C20.1179 63.712 18.9446 62.7947 18.0912 61.6ZM48.0558 65.712C47.0318 65.712 46.1571 65.3493 45.4318 64.624C44.7064 63.8987 44.3438 63.024 44.3438 62C44.3438 60.976 44.7064 60.1013 45.4318 59.376C46.1571 58.6507 47.0318 58.288 48.0558 58.288C49.0798 58.288 49.9544 58.6507 50.6798 59.376C51.4051 60.1013 51.7678 60.976 51.7678 62C51.7678 63.024 51.4051 63.8987 50.6798 64.624C49.9544 65.3493 49.0798 65.712 48.0558 65.712ZM49.1188 52V43.04H63.1988V52H49.1188ZM41.4387 52V43.04H46.5588V32.224L55.5188 30.24V50.528C55.5188 51.04 55.3054 51.4027 54.8788 51.616C54.4521 51.8293 54.0254 51.9573 53.5988 52C53.1721 52 52.9588 52 52.9588 52H41.4387ZM60.6262 52V43.04H89.9383V52H60.6262ZM83.3463 64.864L68.2423 37.984H64.7863L60.3062 29.024H72.7223L89.4903 59.04L83.3463 64.864ZM87.3762 52V43.04H100.176L103.184 52H87.3762ZM102.992 52C101.03 52 99.2163 51.5093 97.5523 50.528C95.8883 49.5467 94.5443 48.224 93.5203 46.56C92.5389 44.896 92.0483 43.0827 92.0483 41.12C92.0483 39.1147 92.5389 37.3013 93.5203 35.68C94.5443 34.016 95.8883 32.6933 97.5523 31.712C99.2163 30.7307 101.03 30.24 102.992 30.24C104.998 30.24 106.811 30.7307 108.432 31.712C110.054 32.6933 111.355 34.016 112.336 35.68C113.318 37.3013 113.808 39.1147 113.808 41.12C113.808 43.1253 113.318 44.96 112.336 46.624C111.355 48.2453 110.054 49.5467 108.432 50.528C106.811 51.5093 104.998 52 102.992 52ZM102.992 43.04C103.547 43.04 103.995 42.8693 104.336 42.528C104.678 42.144 104.848 41.6747 104.848 41.12C104.848 40.5653 104.678 40.1173 104.336 39.776C103.995 39.392 103.547 39.2 102.992 39.2C102.438 39.2 101.968 39.392 101.584 39.776C101.2 40.1173 101.008 40.5653 101.008 41.12C101.008 41.6747 101.2 42.144 101.584 42.528C101.968 42.8693 102.438 43.04 102.992 43.04Z" fill="black"/>
</svg>
