<?xml version="1.0" standalone="no"?>
<!DOCTYPE svg PUBLIC "-//W3C//DTD SVG 20010904//EN"
 "http://www.w3.org/TR/2001/REC-SVG-20010904/DTD/svg10.dtd">
<svg version="1.0" xmlns="http://www.w3.org/2000/svg"
 width="512.000000pt" height="512.000000pt" viewBox="0 0 512.000000 512.000000"
 preserveAspectRatio="xMidYMid meet">

<g transform="translate(0.000000,512.000000) scale(0.100000,-0.100000)"
fill="#000000" stroke="none">
<path d="M1106 5109 c-474 -62 -887 -404 -1040 -861 -64 -192 -61 -97 -61
-1688 0 -1591 -3 -1496 61 -1688 156 -467 575 -807 1062 -862 68 -8 523 -10
1497 -8 1538 4 1432 0 1623 64 404 135 726 480 831 889 41 162 42 212 39 1670
-4 1539 0 1431 -64 1625 -123 371 -433 680 -806 804 -192 64 -81 60 -1648 62
-795 1 -1455 -2 -1494 -7z m2987 -321 c183 -51 330 -139 463 -281 118 -125
188 -254 237 -432 l22 -80 2 -1394 c3 -1217 2 -1406 -12 -1483 -36 -208 -116
-367 -259 -517 -127 -131 -276 -220 -453 -269 l-98 -27 -1394 -3 c-1217 -2
-1406 -1 -1483 13 -393 68 -692 345 -791 732 l-22 88 0 1430 0 1430 23 84 c51
187 137 334 269 462 148 145 324 234 523 268 32 5 647 8 1465 7 l1410 -1 98
-27z"/>
<path d="M2490 3384 c-294 -79 -594 -505 -617 -876 -5 -77 -2 -112 12 -163 18
-68 73 -162 118 -204 l27 -24 -143 -62 c-78 -34 -158 -70 -177 -79 l-36 -18
40 -116 c21 -65 40 -118 41 -119 1 -2 73 8 161 22 297 46 841 106 1124 125
221 15 243 21 311 89 67 67 93 133 93 231 0 84 -14 131 -63 210 l-39 65 -44
-3 c-58 -4 -453 -77 -557 -104 -82 -20 -87 -21 -177 -5 -197 35 -329 96 -406
187 -45 51 -44 52 50 151 80 85 124 117 217 154 59 24 84 29 160 29 54 0 106
-6 130 -15 43 -16 42 -14 30 -95 l-7 -41 89 -37 c124 -53 130 -52 170 14 115
189 88 442 -60 575 -120 109 -292 151 -447 109z"/>
</g>
</svg>
