<svg xmlns="http://www.w3.org/2000/svg" width="512" height="512">
    <path style="stroke:none;fill-rule:nonzero;fill:#000;fill-opacity:1" d="M256 469.332c-117.547 0-213.332-95.785-213.332-213.332S138.453 42.668 256 42.668s213.332 86.184 213.332 192c0 70.613-57.387 128-128 128h-37.758c-5.972 0-10.668 4.691-10.668 10.664 0 2.563 1.067 4.906 2.774 7.043 8.746 10.023 13.652 22.613 13.652 35.625 0 29.441-23.89 53.332-53.332 53.332Zm0-384c-94.078 0-170.668 76.59-170.668 170.668S161.922 426.668 256 426.668c5.973 0 10.668-4.695 10.668-10.668 0-3.414-1.707-5.973-2.988-7.465-8.746-9.816-13.442-22.402-13.442-35.203 0-29.437 23.895-53.332 53.336-53.332h37.758c47.148 0 85.336-38.188 85.336-85.332 0-82.348-76.59-149.336-170.668-149.336Zm0 0"/>
    <path style="stroke:none;fill-rule:nonzero;fill:#000;fill-opacity:1" d="M170.668 245.332c0 17.676-14.328 32-32 32-17.676 0-32-14.324-32-32 0-17.672 14.324-32 32-32 17.672 0 32 14.328 32 32ZM234.668 160c0 17.672-14.328 32-32 32-17.676 0-32-14.328-32-32s14.324-32 32-32c17.672 0 32 14.328 32 32ZM341.332 160c0 17.672-14.324 32-32 32-17.672 0-32-14.328-32-32s14.328-32 32-32c17.676 0 32 14.328 32 32ZM405.332 245.332c0 17.676-14.324 32-32 32-17.672 0-32-14.324-32-32 0-17.672 14.328-32 32-32 17.676 0 32 14.328 32 32Zm0 0"/>
</svg>
