<svg xml:space="preserve" style="max-height: 500px" viewBox="8.75 9.75 79.5 81.25" y="0px" x="0px" version="1.1" xmlns:xlink="http://www.w3.org/1999/xlink" xmlns="http://www.w3.org/2000/svg" width="79.5" height="81.25"><g><path d="M84.9907532,37.0595856c-0.1844406-2.5379486-2.3935928-4.4504089-4.9355545-4.265995l-9.434082,0.6856155   l0.9822845-13.5356979c0.1844406-2.5419388-1.7240372-4.7511148-4.2659683-4.9355564   c-2.5339432-0.1804266-4.7471313,1.7280464-4.931572,4.265995l-1.0785255,14.8788319L40.8626213,35.636673l1.1394844-15.6931648   c0.1844139-2.5419388-1.7240562-4.7511148-4.261982-4.9355564c-2.5379486-0.1804266-4.7511406,1.7280464-4.9355545,4.265995   l-2.7544498,37.952858l-10.7732239,0.7818375c-2.5419617,0.1844406-4.4504347,2.3936157-4.2659941,4.9315414   c0.1764135,2.4256783,2.1971369,4.2780342,4.5907545,4.2780342c0.1122494,0,0.2285137-0.0040131,0.3407879-0.0120392   l9.4340782-0.6856155l-0.9822807,13.5356979c-0.1844406,2.5419617,1.7280445,4.7511444,4.2659683,4.9315414   c0.116291,0.0080261,0.2285385,0.0160522,0.3408127,0.0160522c2.3935928,0,4.414341-1.8523331,4.5907555-4.2780075   l1.0785255-14.8788605l20.4588661-1.4036713l-1.1336327,15.6129456c-0.1844177,2.5419617,1.7240562,4.7511444,4.265995,4.9315414   c0.1122742,0.0080261,0.2245216,0.0160522,0.3367958,0.0160522c2.3935928,0,4.4183273-1.8523331,4.5947418-4.2780075   l2.7544479-37.9528809l10.7772369-0.7818336C83.2627106,41.8067131,85.1751938,39.597538,84.9907532,37.0595856z    M59.8100853,55.0657616H59.807785l-20.4639053,1.4874687l0.8435516-11.6176567l20.4663315-1.4890327L59.8100853,55.0657616z"/><path d="M19.6030254,46.4145012c0.1119823,0,0.2251377-0.0041122,0.3384876-0.0123367l6.9123535-0.501564l0.6744061-9.2946625   l-8.2539463,0.5989113c-2.5399323,0.1842194-4.449481,2.3925171-4.2650642,4.932251   C15.1852598,44.5634842,17.2083569,46.4145012,19.6030254,46.4145012z"/><path d="M80.0592117,53.5983124l-6.9137955,0.5010757l-0.6747055,9.2965965l8.2540436-0.6001358   c2.5379562-0.1844406,4.4504395-2.3935928,4.2659988-4.9315414C84.8063126,55.3223457,82.5971603,53.4178848,80.0592117,53.5983124   z"/></g><text font-family="'Helvetica Neue', Helvetica, Arial-Unicode, Arial, Sans-serif" font-weight="bold" font-size="5px" fill="#000000" y="115" x="0">Created by MOHAMMED SALIM</text><text font-family="'Helvetica Neue', Helvetica, Arial-Unicode, Arial, Sans-serif" font-weight="bold" font-size="5px" fill="#000000" y="120" x="0">from the Noun Project</text></svg>